{
 "accessors": [
  {
   "componentType": 5126,
   "type": "VEC3",
   "count": 148,
   "max": [
    0.5,
    0.5,
    0.5
   ],
   "min": [
    -0.5,
    -0.5,
    -0.5
   ],
   "bufferView": 0
  },
  {
   "componentType": 5126,
   "type": "VEC3",
   "count": 148,
   "bufferView": 1
  },
  {
   "componentType": 5126,
   "type": "VEC2",
   "count": 148,
   "bufferView": 2
  },
  {
   "componentType": 5121,
   "type": "SCALAR",
   "count": 288,
   "bufferView": 3
  },
  {
   "componentType": 5126,
   "type": "VEC3",
   "count": 148,
   "max": [
    0.5,
    0.5,
    0.5
   ],
   "min": [
    -0.5,
    -0.5,
    -0.5
   ],
   "bufferView": 4
  },
  {
   "componentType": 5126,
   "type": "VEC3",
   "count": 148,
   "bufferView": 5
  },
  {
   "componentType": 5126,
   "type": "VEC2",
   "count": 148,
   "bufferView": 6
  },
  {
   "componentType": 5121,
   "type": "SCALAR",
   "count": 288,
   "bufferView": 7
  },
  {
   "componentType": 5126,
   "type": "VEC3",
   "count": 148,
   "max": [
    0.5,
    0.5,
    0.5
   ],
   "min": [
    -0.5,
    -0.5,
    -0.5
   ],
   "bufferView": 8
  },
  {
   "componentType": 5126,
   "type": "VEC3",
   "count": 148,
   "bufferView": 9
  },
  {
   "componentType": 5126,
   "type": "VEC2",
   "count": 148,
   "bufferView": 10
  },
  {
   "componentType": 5121,
   "type": "SCALAR",
   "count": 288,
   "bufferView": 11
  },
  {
   "componentType": 5126,
   "type": "VEC3",
   "count": 623,
   "max": [
    0.5,
    0.5,
    0.5
   ],
   "min": [
    -0.5,
    -0.5,
    -0.5
   ],
   "bufferView": 12
  },
  {
   "componentType": 5126,
   "type": "VEC3",
   "count": 623,
   "bufferView": 13
  },
  {
   "componentType": 5126,
   "type": "VEC2",
   "count": 623,
   "bufferView": 14
  },
  {
   "componentType": 5123,
   "type": "SCALAR",
   "count": 3312,
   "bufferView": 15
  },
  {
   "componentType": 5126,
   "type": "VEC3",
   "count": 148,
   "max": [
    0.5,
    0.5,
    0.5
   ],
   "min": [
    -0.5,
    -0.5,
    -0.5
   ],
   "bufferView": 16
  },
  {
   "componentType": 5126,
   "type": "VEC3",
   "count": 148,
   "bufferView": 17
  },
  {
   "componentType": 5126,
   "type": "VEC2",
   "count": 148,
   "bufferView": 18
  },
  {
   "componentType": 5121,
   "type": "SCALAR",
   "count": 288,
   "bufferView": 19
  },
  {
   "componentType": 5126,
   "type": "VEC3",
   "count": 148,
   "max": [
    0.5,
    0.5,
    0.5
   ],
   "min": [
    -0.5,
    -0.5,
    -0.5
   ],
   "bufferView": 20
  },
  {
   "componentType": 5126,
   "type": "VEC3",
   "count": 148,
   "bufferView": 21
  },
  {
   "componentType": 5126,
   "type": "VEC2",
   "count": 148,
   "bufferView": 22
  },
  {
   "componentType": 5121,
   "type": "SCALAR",
   "count": 288,
   "bufferView": 23
  },
  {
   "componentType": 5126,
   "type": "VEC3",
   "count": 148,
   "max": [
    0.5,
    0.5,
    0.5
   ],
   "min": [
    -0.5,
    -0.5,
    -0.5
   ],
   "bufferView": 24
  },
  {
   "componentType": 5126,
   "type": "VEC3",
   "count": 148,
   "bufferView": 25
  },
  {
   "componentType": 5126,
   "type": "VEC2",
   "count": 148,
   "bufferView": 26
  },
  {
   "componentType": 5121,
   "type": "SCALAR",
   "count": 288,
   "bufferView": 27
  },
  {
   "componentType": 5126,
   "type": "VEC3",
   "count": 148,
   "max": [
    0.5,
    0.5,
    0.5
   ],
   "min": [
    -0.5,
    -0.5,
    -0.5
   ],
   "bufferView": 28
  },
  {
   "componentType": 5126,
   "type": "VEC3",
   "count": 148,
   "bufferView": 29
  },
  {
   "componentType": 5126,
   "type": "VEC2",
   "count": 148,
   "bufferView": 30
  },
  {
   "componentType": 5121,
   "type": "SCALAR",
   "count": 288,
   "bufferView": 31
  },
  {
   "componentType": 5126,
   "type": "VEC3",
   "count": 148,
   "max": [
    0.5,
    0.5,
    0.5
   ],
   "min": [
    -0.5,
    -0.5,
    -0.5
   ],
   "bufferView": 32
  },
  {
   "componentType": 5126,
   "type": "VEC3",
   "count": 148,
   "bufferView": 33
  },
  {
   "componentType": 5126,
   "type": "VEC2",
   "count": 148,
   "bufferView": 34
  },
  {
   "componentType": 5121,
   "type": "SCALAR",
   "count": 288,
   "bufferView": 35
  },
  {
   "componentType": 5126,
   "type": "VEC3",
   "count": 148,
   "max": [
    0.5,
    0.5,
    0.5
   ],
   "min": [
    -0.5,
    -0.5,
    -0.5
   ],
   "bufferView": 36
  },
  {
   "componentType": 5126,
   "type": "VEC3",
   "count": 148,
   "bufferView": 37
  },
  {
   "componentType": 5126,
   "type": "VEC2",
   "count": 148,
   "bufferView": 38
  },
  {
   "componentType": 5121,
   "type": "SCALAR",
   "count": 288,
   "bufferView": 39
  },
  {
   "componentType": 5126,
   "type": "VEC3",
   "count": 48,
   "max": [
    2.4466500282287598,
    0.10000000149011612,
    1.1513108015060425
   ],
   "min": [
    -0.6370499134063721,
    -0.10000000149011612,
    -1.4479554891586304
   ],
   "bufferView": 40
  },
  {
   "componentType": 5126,
   "type": "VEC3",
   "count": 48,
   "bufferView": 41
  },
  {
   "componentType": 5126,
   "type": "VEC2",
   "count": 48,
   "bufferView": 42
  },
  {
   "componentType": 5121,
   "type": "SCALAR",
   "count": 72,
   "bufferView": 43
  },
  {
   "componentType": 5126,
   "type": "VEC3",
   "count": 48,
   "max": [
    2.4466500282287598,
    0.10000000149011612,
    1.1513108015060425
   ],
   "min": [
    -0.6370499134063721,
    -0.10000000149011612,
    -1.4479554891586304
   ],
   "bufferView": 44
  },
  {
   "componentType": 5126,
   "type": "VEC3",
   "count": 48,
   "bufferView": 45
  },
  {
   "componentType": 5126,
   "type": "VEC2",
   "count": 48,
   "bufferView": 46
  },
  {
   "componentType": 5121,
   "type": "SCALAR",
   "count": 72,
   "bufferView": 47
  },
  {
   "componentType": 5126,
   "type": "VEC3",
   "count": 48,
   "max": [
    2.4466500282287598,
    0.10000000149011612,
    1.1513108015060425
   ],
   "min": [
    -0.6370499134063721,
    -0.10000000149011612,
    -1.4479554891586304
   ],
   "bufferView": 48
  },
  {
   "componentType": 5126,
   "type": "VEC3",
   "count": 48,
   "bufferView": 49
  },
  {
   "componentType": 5126,
   "type": "VEC2",
   "count": 48,
   "bufferView": 50
  },
  {
   "componentType": 5121,
   "type": "SCALAR",
   "count": 72,
   "bufferView": 51
  },
  {
   "componentType": 5126,
   "type": "VEC3",
   "count": 48,
   "max": [
    2.4466500282287598,
    0.10000000149011612,
    1.1513108015060425
   ],
   "min": [
    -0.6370499134063721,
    -0.10000000149011612,
    -1.4479554891586304
   ],
   "bufferView": 52
  },
  {
   "componentType": 5126,
   "type": "VEC3",
   "count": 48,
   "bufferView": 53
  },
  {
   "componentType": 5126,
   "type": "VEC2",
   "count": 48,
   "bufferView": 54
  },
  {
   "componentType": 5121,
   "type": "SCALAR",
   "count": 72,
   "bufferView": 55
  }
 ],
 "asset": {
  "version": "2.0",
  "generator": "clara.io"
 },
 "bufferViews": [
  {
   "buffer": 0,
   "byteOffset": 0,
   "byteLength": 1776,
   "target": 34962,
   "byteStride": 12
  },
  {
   "buffer": 0,
   "byteOffset": 1776,
   "byteLength": 1776,
   "target": 34962,
   "byteStride": 12
  },
  {
   "buffer": 0,
   "byteOffset": 3552,
   "byteLength": 1184,
   "target": 34962,
   "byteStride": 8
  },
  {
   "buffer": 0,
   "byteOffset": 4736,
   "byteLength": 288,
   "target": 34963
  },
  {
   "buffer": 0,
   "byteOffset": 5024,
   "byteLength": 1776,
   "target": 34962,
   "byteStride": 12
  },
  {
   "buffer": 0,
   "byteOffset": 6800,
   "byteLength": 1776,
   "target": 34962,
   "byteStride": 12
  },
  {
   "buffer": 0,
   "byteOffset": 8576,
   "byteLength": 1184,
   "target": 34962,
   "byteStride": 8
  },
  {
   "buffer": 0,
   "byteOffset": 9760,
   "byteLength": 288,
   "target": 34963
  },
  {
   "buffer": 0,
   "byteOffset": 10048,
   "byteLength": 1776,
   "target": 34962,
   "byteStride": 12
  },
  {
   "buffer": 0,
   "byteOffset": 11824,
   "byteLength": 1776,
   "target": 34962,
   "byteStride": 12
  },
  {
   "buffer": 0,
   "byteOffset": 13600,
   "byteLength": 1184,
   "target": 34962,
   "byteStride": 8
  },
  {
   "buffer": 0,
   "byteOffset": 14784,
   "byteLength": 288,
   "target": 34963
  },
  {
   "buffer": 0,
   "byteOffset": 15072,
   "byteLength": 7476,
   "target": 34962,
   "byteStride": 12
  },
  {
   "buffer": 0,
   "byteOffset": 22548,
   "byteLength": 7476,
   "target": 34962,
   "byteStride": 12
  },
  {
   "buffer": 0,
   "byteOffset": 30024,
   "byteLength": 4984,
   "target": 34962,
   "byteStride": 8
  },
  {
   "buffer": 0,
   "byteOffset": 35008,
   "byteLength": 6624,
   "target": 34963
  },
  {
   "buffer": 0,
   "byteOffset": 41632,
   "byteLength": 1776,
   "target": 34962,
   "byteStride": 12
  },
  {
   "buffer": 0,
   "byteOffset": 43408,
   "byteLength": 1776,
   "target": 34962,
   "byteStride": 12
  },
  {
   "buffer": 0,
   "byteOffset": 45184,
   "byteLength": 1184,
   "target": 34962,
   "byteStride": 8
  },
  {
   "buffer": 0,
   "byteOffset": 46368,
   "byteLength": 288,
   "target": 34963
  },
  {
   "buffer": 0,
   "byteOffset": 46656,
   "byteLength": 1776,
   "target": 34962,
   "byteStride": 12
  },
  {
   "buffer": 0,
   "byteOffset": 48432,
   "byteLength": 1776,
   "target": 34962,
   "byteStride": 12
  },
  {
   "buffer": 0,
   "byteOffset": 50208,
   "byteLength": 1184,
   "target": 34962,
   "byteStride": 8
  },
  {
   "buffer": 0,
   "byteOffset": 51392,
   "byteLength": 288,
   "target": 34963
  },
  {
   "buffer": 0,
   "byteOffset": 51680,
   "byteLength": 1776,
   "target": 34962,
   "byteStride": 12
  },
  {
   "buffer": 0,
   "byteOffset": 53456,
   "byteLength": 1776,
   "target": 34962,
   "byteStride": 12
  },
  {
   "buffer": 0,
   "byteOffset": 55232,
   "byteLength": 1184,
   "target": 34962,
   "byteStride": 8
  },
  {
   "buffer": 0,
   "byteOffset": 56416,
   "byteLength": 288,
   "target": 34963
  },
  {
   "buffer": 0,
   "byteOffset": 56704,
   "byteLength": 1776,
   "target": 34962,
   "byteStride": 12
  },
  {
   "buffer": 0,
   "byteOffset": 58480,
   "byteLength": 1776,
   "target": 34962,
   "byteStride": 12
  },
  {
   "buffer": 0,
   "byteOffset": 60256,
   "byteLength": 1184,
   "target": 34962,
   "byteStride": 8
  },
  {
   "buffer": 0,
   "byteOffset": 61440,
   "byteLength": 288,
   "target": 34963
  },
  {
   "buffer": 0,
   "byteOffset": 61728,
   "byteLength": 1776,
   "target": 34962,
   "byteStride": 12
  },
  {
   "buffer": 0,
   "byteOffset": 63504,
   "byteLength": 1776,
   "target": 34962,
   "byteStride": 12
  },
  {
   "buffer": 0,
   "byteOffset": 65280,
   "byteLength": 1184,
   "target": 34962,
   "byteStride": 8
  },
  {
   "buffer": 0,
   "byteOffset": 66464,
   "byteLength": 288,
   "target": 34963
  },
  {
   "buffer": 0,
   "byteOffset": 66752,
   "byteLength": 1776,
   "target": 34962,
   "byteStride": 12
  },
  {
   "buffer": 0,
   "byteOffset": 68528,
   "byteLength": 1776,
   "target": 34962,
   "byteStride": 12
  },
  {
   "buffer": 0,
   "byteOffset": 70304,
   "byteLength": 1184,
   "target": 34962,
   "byteStride": 8
  },
  {
   "buffer": 0,
   "byteOffset": 71488,
   "byteLength": 288,
   "target": 34963
  },
  {
   "buffer": 0,
   "byteOffset": 71776,
   "byteLength": 576,
   "target": 34962,
   "byteStride": 12
  },
  {
   "buffer": 0,
   "byteOffset": 72352,
   "byteLength": 576,
   "target": 34962,
   "byteStride": 12
  },
  {
   "buffer": 0,
   "byteOffset": 72928,
   "byteLength": 384,
   "target": 34962,
   "byteStride": 8
  },
  {
   "buffer": 0,
   "byteOffset": 73312,
   "byteLength": 72,
   "target": 34963
  },
  {
   "buffer": 0,
   "byteOffset": 73384,
   "byteLength": 576,
   "target": 34962,
   "byteStride": 12
  },
  {
   "buffer": 0,
   "byteOffset": 73960,
   "byteLength": 576,
   "target": 34962,
   "byteStride": 12
  },
  {
   "buffer": 0,
   "byteOffset": 74536,
   "byteLength": 384,
   "target": 34962,
   "byteStride": 8
  },
  {
   "buffer": 0,
   "byteOffset": 74920,
   "byteLength": 72,
   "target": 34963
  },
  {
   "buffer": 0,
   "byteOffset": 74992,
   "byteLength": 576,
   "target": 34962,
   "byteStride": 12
  },
  {
   "buffer": 0,
   "byteOffset": 75568,
   "byteLength": 576,
   "target": 34962,
   "byteStride": 12
  },
  {
   "buffer": 0,
   "byteOffset": 76144,
   "byteLength": 384,
   "target": 34962,
   "byteStride": 8
  },
  {
   "buffer": 0,
   "byteOffset": 76528,
   "byteLength": 72,
   "target": 34963
  },
  {
   "buffer": 0,
   "byteOffset": 76600,
   "byteLength": 576,
   "target": 34962,
   "byteStride": 12
  },
  {
   "buffer": 0,
   "byteOffset": 77176,
   "byteLength": 576,
   "target": 34962,
   "byteStride": 12
  },
  {
   "buffer": 0,
   "byteOffset": 77752,
   "byteLength": 384,
   "target": 34962,
   "byteStride": 8
  },
  {
   "buffer": 0,
   "byteOffset": 78136,
   "byteLength": 72,
   "target": 34963
  }
 ],
 "buffers": [
  {
   "byteLength": 78208,
   "uri": "data:application/octet-stream;base64,"
  }
 ],
 "materials": [
  {
   "name": "Default-Cylinder",
   "pbrMetallicRoughness": {
    "baseColorFactor": [
     0.7215686274509804,
     0.7215686274509804,
     0.7215686274509804,
     1
    ]
   }
  },
  {
   "name": "Default-Cylinder1",
   "pbrMetallicRoughness": {
    "baseColorFactor": [
     0.19607843137254902,
     0.19607843137254902,
     0.19607843137254902,
     1
    ]
   }
  },
  {
   "name": "Default-Cylinder2",
   "pbrMetallicRoughness": {
    "baseColorFactor": [
     0.2980392156862745,
     0.2980392156862745,
     0.2980392156862745,
     1
    ]
   }
  },
  {
   "name": "Default-Sphere",
   "pbrMetallicRoughness": {
    "baseColorFactor": [
     0.7215686274509804,
     0.7215686274509804,
     0.7215686274509804,
     1
    ]
   }
  },
  {
   "name": "Default-Cylinder3",
   "pbrMetallicRoughness": {
    "baseColorFactor": [
     0.19607843137254902,
     0.19607843137254902,
     0.19607843137254902,
     1
    ]
   }
  },
  {
   "name": "Default-Cylinder4",
   "pbrMetallicRoughness": {
    "baseColorFactor": [
     0.2980392156862745,
     0.2980392156862745,
     0.2980392156862745,
     1
    ]
   }
  },
  {
   "name": "Default-Cylinder5",
   "pbrMetallicRoughness": {
    "baseColorFactor": [
     0.36470588235294116,
     0.4588235294117647,
     0.6,
     1
    ]
   }
  },
  {
   "name": "Default-Cylinder6",
   "pbrMetallicRoughness": {
    "baseColorFactor": [
     0.36470588235294116,
     0.4588235294117647,
     0.6,
     1
    ]
   }
  },
  {
   "name": "Default-Cylinder7",
   "pbrMetallicRoughness": {
    "baseColorFactor": [
     0.36470588235294116,
     0.4588235294117647,
     0.6,
     1
    ]
   }
  },
  {
   "name": "Default-Cylinder8",
   "pbrMetallicRoughness": {
    "baseColorFactor": [
     0.36470588235294116,
     0.4588235294117647,
     0.6,
     1
    ]
   }
  },
  {
   "name": "Default-Merged_Meshes",
   "pbrMetallicRoughness": {
    "baseColorFactor": [
     0.6901960784313725,
     0.6901960784313725,
     0.6901960784313725,
     1
    ]
   }
  },
  {
   "name": "Default-Merged_Meshes1",
   "pbrMetallicRoughness": {
    "baseColorFactor": [
     0.6901960784313725,
     0.6901960784313725,
     0.6901960784313725,
     1
    ]
   }
  },
  {
   "name": "Default-Merged_Meshes2",
   "pbrMetallicRoughness": {
    "baseColorFactor": [
     0.6901960784313725,
     0.6901960784313725,
     0.6901960784313725,
     1
    ]
   }
  },
  {
   "name": "Default-Merged_Meshes3",
   "pbrMetallicRoughness": {
    "baseColorFactor": [
     0.6901960784313725,
     0.6901960784313725,
     0.6901960784313725,
     1
    ]
   }
  }
 ],
 "meshes": [
  {
   "primitives": [
    {
     "indices": 3,
     "material": 0,
     "mode": 4,
     "attributes": {
      "POSITION": 0,
      "NORMAL": 1,
      "TEXCOORD_0": 2
     }
    }
   ]
  },
  {
   "primitives": [
    {
     "indices": 7,
     "material": 1,
     "mode": 4,
     "attributes": {
      "POSITION": 4,
      "NORMAL": 5,
      "TEXCOORD_0": 6
     }
    }
   ]
  },
  {
   "primitives": [
    {
     "indices": 11,
     "material": 2,
     "mode": 4,
     "attributes": {
      "POSITION": 8,
      "NORMAL": 9,
      "TEXCOORD_0": 10
     }
    }
   ]
  },
  {
   "primitives": [
    {
     "indices": 15,
     "material": 3,
     "mode": 4,
     "attributes": {
      "POSITION": 12,
      "NORMAL": 13,
      "TEXCOORD_0": 14
     }
    }
   ]
  },
  {
   "primitives": [
    {
     "indices": 19,
     "material": 4,
     "mode": 4,
     "attributes": {
      "POSITION": 16,
      "NORMAL": 17,
      "TEXCOORD_0": 18
     }
    }
   ]
  },
  {
   "primitives": [
    {
     "indices": 23,
     "material": 5,
     "mode": 4,
     "attributes": {
      "POSITION": 20,
      "NORMAL": 21,
      "TEXCOORD_0": 22
     }
    }
   ]
  },
  {
   "primitives": [
    {
     "indices": 27,
     "material": 6,
     "mode": 4,
     "attributes": {
      "POSITION": 24,
      "NORMAL": 25,
      "TEXCOORD_0": 26
     }
    }
   ]
  },
  {
   "primitives": [
    {
     "indices": 31,
     "material": 7,
     "mode": 4,
     "attributes": {
      "POSITION": 28,
      "NORMAL": 29,
      "TEXCOORD_0": 30
     }
    }
   ]
  },
  {
   "primitives": [
    {
     "indices": 35,
     "material": 8,
     "mode": 4,
     "attributes": {
      "POSITION": 32,
      "NORMAL": 33,
      "TEXCOORD_0": 34
     }
    }
   ]
  },
  {
   "primitives": [
    {
     "indices": 39,
     "material": 9,
     "mode": 4,
     "attributes": {
      "POSITION": 36,
      "NORMAL": 37,
      "TEXCOORD_0": 38
     }
    }
   ]
  },
  {
   "primitives": [
    {
     "indices": 43,
     "material": 10,
     "mode": 4,
     "attributes": {
      "POSITION": 40,
      "NORMAL": 41,
      "TEXCOORD_0": 42
     }
    }
   ]
  },
  {
   "primitives": [
    {
     "indices": 47,
     "material": 11,
     "mode": 4,
     "attributes": {
      "POSITION": 44,
      "NORMAL": 45,
      "TEXCOORD_0": 46
     }
    }
   ]
  },
  {
   "primitives": [
    {
     "indices": 51,
     "material": 12,
     "mode": 4,
     "attributes": {
      "POSITION": 48,
      "NORMAL": 49,
      "TEXCOORD_0": 50
     }
    }
   ]
  },
  {
   "primitives": [
    {
     "indices": 55,
     "material": 13,
     "mode": 4,
     "attributes": {
      "POSITION": 52,
      "NORMAL": 53,
      "TEXCOORD_0": 54
     }
    }
   ]
  }
 ],
 "nodes": [
  {
   "name": "Cylinder",
   "rotation": [
    0.7071067811865475,
    0,
    0,
    0.7071067811865476
   ],
   "scale": [
    2,
    4,
    2
   ],
   "mesh": 0
  },
  {
   "name": "Cylinder1",
   "translation": [
    0,
    0,
    -2.200000047683716
   ],
   "rotation": [
    0.7071067811865475,
    0,
    0,
    0.7071067811865476
   ],
   "scale": [
    1.5,
    0.4000000059604645,
    1.5
   ],
   "mesh": 1
  },
  {
   "name": "Cylinder2",
   "translation": [
    0,
    0,
    -2.4470999240875244
   ],
   "rotation": [
    0.7071067811865475,
    0,
    0,
    0.7071067811865476
   ],
   "scale": [
    1.7999999523162842,
    0.5,
    1.7999999523162842
   ],
   "mesh": 2
  },
  {
   "name": "Sphere",
   "translation": [
    0,
    0,
    2.0576999187469482
   ],
   "scale": [
    2,
    2,
    3.829699993133545
   ],
   "mesh": 3
  },
  {
   "name": "Cylinder3",
   "translation": [
    0,
    0,
    -2.867500066757202
   ],
   "rotation": [
    0.7071067811865475,
    0,
    0,
    0.7071067811865476
   ],
   "scale": [
    1.5,
    0.4000000059604645,
    1.5
   ],
   "mesh": 4
  },
  {
   "name": "Cylinder4",
   "translation": [
    0,
    0,
    -3.1324000358581543
   ],
   "rotation": [
    0.7071067811865475,
    0,
    0,
    0.7071067811865476
   ],
   "scale": [
    2,
    0.5,
    2
   ],
   "mesh": 5
  },
  {
   "name": "Cylinder5",
   "translation": [
    0.9994999766349792,
    0,
    1.7058000564575195
   ],
   "rotation": [
    0,
    0,
    -0.7071067811865475,
    0.7071067811865476
   ],
   "scale": [
    0.6151000261306763,
    0.10920000076293945,
    0.3955000042915344
   ],
   "mesh": 6
  },
  {
   "name": "Cylinder6",
   "translation": [
    0.9994999766349792,
    0,
    1.0576000213623047
   ],
   "rotation": [
    0,
    0,
    -0.7071067811865475,
    0.7071067811865476
   ],
   "scale": [
    0.6151000261306763,
    0.10920000076293945,
    0.3955000042915344
   ],
   "mesh": 7
  },
  {
   "name": "Cylinder7",
   "translation": [
    -0.9624000191688538,
    0,
    1.7058000564575195
   ],
   "rotation": [
    0,
    0,
    -0.7071067811865475,
    0.7071067811865476
   ],
   "scale": [
    0.6151000261306763,
    0.10920000076293945,
    0.3955000042915344
   ],
   "mesh": 8
  },
  {
   "name": "Cylinder8",
   "translation": [
    -0.9624000191688538,
    0,
    1.0576000213623047
   ],
   "rotation": [
    0,
    0,
    -0.7071067811865475,
    0.7071067811865476
   ],
   "scale": [
    0.6151000261306763,
    0.10920000076293945,
    0.3955000042915344
   ],
   "mesh": 9
  },
  {
   "name": "Merged_Meshes",
   "mesh": 10
  },
  {
   "name": "Merged_Meshes1",
   "rotation": [
    0,
    0,
    0.7071067811865475,
    0.7071067811865476
   ],
   "mesh": 11
  },
  {
   "name": "Merged_Meshes2",
   "rotation": [
    0,
    0,
    1,
    6.123234262925839e-17
   ],
   "mesh": 12
  },
  {
   "name": "Merged_Meshes3",
   "rotation": [
    0,
    0,
    -0.7071067811865476,
    0.7071067811865475
   ],
   "mesh": 13
  }
 ],
 "scene": 0,
 "scenes": [
  {
   "nodes": [
    0,
    1,
    2,
    3,
    4,
    5,
    6,
    7,
    8,
    9,
    10,
    11,
    12,
    13
   ]
  }
 ]
}